<svg viewBox="0 0 200 200" xmlns="http://www.w3.org/2000/svg">
    <!-- Background - Same sunny morning -->
    <rect width="200" height="200" fill="#FFF9C4"/>
    <circle cx="170" cy="30" r="15" fill="#FFEB3B"/>
    <g stroke="#FFEB3B" stroke-width="2">
        <line x1="170" y1="10" x2="170" y2="15"/>
        <line x1="170" y1="45" x2="170" y2="50"/>
        <line x1="150" y1="30" x2="155" y2="30"/>
        <line x1="185" y1="30" x2="190" y2="30"/>
        <line x1="157" y1="15" x2="160" y2="18"/>
        <line x1="180" y1="42" x2="183" y2="45"/>
        <line x1="183" y1="18" x2="180" y2="15"/>
        <line x1="160" y1="42" x2="157" y2="45"/>
    </g>

    <!-- School backpack - ready to go! -->
    <rect x="155" y="95" width="28" height="35" rx="3" fill="#F44336"/>
    <rect x="159" y="100" width="20" height="6" fill="#C62828"/>
    <circle cx="164" cy="115" r="2" fill="#FFEB3B"/>
    <path d="M163 95 Q169 88 175 95" stroke="#C62828" stroke-width="2.5" fill="none"/>

    <!-- Table -->
    <rect x="30" y="140" width="100" height="4" fill="#8D6E63"/>

    <!-- Clean empty plate -->
    <ellipse cx="75" cy="135" rx="35" ry="15" fill="#FFF"/>
    <ellipse cx="75" cy="133" rx="33" ry="13" fill="#E8F5E9" stroke="#4CAF50" stroke-width="2"/>

    <!-- Plate sparkles (clean!) -->
    <g opacity="0.5">
        <path d="M50 130 Q55 128 60 130" stroke="#81C784" stroke-width="1" fill="none"/>
        <path d="M85 125 Q90 123 95 125" stroke="#81C784" stroke-width="1" fill="none"/>
    </g>

    <!-- Empty glass -->
    <rect x="110" y="115" width="12" height="20" rx="1" fill="#FFF" stroke="#E0E0E0" stroke-width="1"/>

    <!-- Happy stars (accomplished!) -->
    <g opacity="0.8">
        <path d="M40 100 L42 103 L40 106 L38 103 Z" fill="#FFD700"/>
        <path d="M105 95 L107 98 L105 101 L103 98 Z" fill="#FFD700"/>
        <path d="M75 105 L78 108 L75 111 L72 108 Z" fill="#FFD700"/>
    </g>

    <!-- Happy energy indicator -->
    <g transform="translate(30, 55)">
        <circle cx="20" cy="20" r="18" fill="#FFE082" opacity="0.3"/>
        <path d="M15 18 Q20 22 25 18" stroke="#4CAF50" stroke-width="2" fill="none"/>
        <circle cx="16" cy="16" r="2" fill="#333"/>
        <circle cx="24" cy="16" r="2" fill="#333"/>
    </g>

    <text x="10" y="190" font-family="Arial" font-size="11" fill="#4CAF50" font-weight="bold">Ready for school!</text>
</svg>