<svg viewBox="0 0 200 200" xmlns="http://www.w3.org/2000/svg">
    <!-- Background - Sunny morning -->
    <rect width="200" height="200" fill="#FFF9C4"/>
    <!-- Bright sun -->
    <circle cx="170" cy="30" r="15" fill="#FFEB3B"/>
    <g stroke="#FFEB3B" stroke-width="2">
        <line x1="170" y1="10" x2="170" y2="15"/>
        <line x1="170" y1="45" x2="170" y2="50"/>
        <line x1="150" y1="30" x2="155" y2="30"/>
        <line x1="185" y1="30" x2="190" y2="30"/>
        <line x1="157" y1="15" x2="160" y2="18"/>
        <line x1="180" y1="42" x2="183" y2="45"/>
        <line x1="183" y1="18" x2="180" y2="15"/>
        <line x1="160" y1="42" x2="157" y2="45"/>
    </g>

    <!-- School backpack -->
    <rect x="155" y="95" width="28" height="35" rx="3" fill="#F44336"/>
    <rect x="159" y="100" width="20" height="6" fill="#C62828"/>
    <circle cx="164" cy="115" r="2" fill="#FFEB3B"/>
    <path d="M163 95 Q169 88 175 95" stroke="#C62828" stroke-width="2.5" fill="none"/>

    <!-- Table -->
    <rect x="30" y="140" width="100" height="4" fill="#8D6E63"/>

    <!-- Full breakfast plate -->
    <ellipse cx="75" cy="135" rx="35" ry="15" fill="#FFF"/>
    <ellipse cx="75" cy="133" rx="33" ry="13" fill="#E3F2FD" stroke="#2196F3" stroke-width="2"/>

    <!-- Food items -->
    <!-- Toast -->
    <rect x="58" y="120" width="15" height="12" rx="2" fill="#FF9800"/>
    <rect x="60" y="122" width="11" height="8" rx="1" fill="#FFB74D"/>

    <!-- Egg -->
    <ellipse cx="85" cy="125" rx="10" ry="8" fill="#FFF"/>
    <circle cx="85" cy="125" r="4" fill="#FFD54F"/>

    <!-- Berries -->
    <circle cx="95" cy="122" r="4" fill="#E53935"/>
    <circle cx="100" cy="124" r="3" fill="#C62828"/>
    <circle cx="98" cy="128" r="3" fill="#E53935"/>

    <!-- Orange juice -->
    <rect x="110" y="115" width="12" height="20" rx="1" fill="#FFF" stroke="#FF9800" stroke-width="1"/>
    <rect x="111" y="125" width="10" height="10" fill="#FFB74D" opacity="0.7"/>

    <!-- Hungry child indicator -->
    <text x="10" y="30" font-family="Arial" font-size="14" fill="#666">7:45 AM</text>
    <text x="10" y="50" font-family="Arial" font-size="11" fill="#999">School day</text>
</svg>