<svg viewBox="0 0 200 200" xmlns="http://www.w3.org/2000/svg">
    <!-- Background - Evening with moon -->
    <rect width="200" height="200" fill="#E8EAF6"/>
    <circle cx="170" cy="30" r="20" fill="#FFF9C4"/>
    <circle cx="165" cy="27" r="18" fill="#E8EAF6"/>
    <g opacity="0.4">
        <circle cx="30" cy="20" r="1" fill="#FFD700"/>
        <circle cx="50" cy="35" r="1" fill="#FFD700"/>
        <circle cx="45" cy="15" r="1" fill="#FFD700"/>
    </g>

    <!-- Child in day clothes (jeans and shirt) -->
    <circle cx="100" cy="70" r="30" fill="#FFD8A8"/>

    <!-- Regular hairstyle -->
    <ellipse cx="100" cy="50" rx="32" ry="25" fill="#8D6E63"/>

    <!-- Tired eyes -->
    <circle cx="90" cy="68" r="3" fill="#333"/>
    <circle cx="110" cy="68" r="3" fill="#333"/>
    <path d="M95 75 L105 75" stroke="#333" stroke-width="2"/>

    <!-- Day clothes - T-shirt -->
    <rect x="75" y="95" width="50" height="45" rx="5" fill="#2196F3"/>
    <circle cx="85" cy="110" r="3" fill="#1976D2"/>
    <circle cx="95" cy="110" r="3" fill="#1976D2"/>
    <circle cx="105" cy="110" r="3" fill="#1976D2"/>

    <!-- Jeans -->
    <rect x="80" y="135" width="18" height="40" fill="#1565C0"/>
    <rect x="102" y="135" width="18" height="40" fill="#1565C0"/>
    <line x1="89" y1="140" x2="89" y2="170" stroke="#0D47A1" stroke-width="1"/>
    <line x1="111" y1="140" x2="111" y2="170" stroke="#0D47A1" stroke-width="1"/>

    <text x="10" y="190" font-family="Arial" font-size="12" fill="#666">8:00 PM</text>
</svg>