<svg viewBox="0 0 200 200" xmlns="http://www.w3.org/2000/svg">
    <!-- Background - Same rainy morning -->
    <rect width="200" height="200" fill="#E3F2FD"/>
    <path d="M20 10 L18 20 M40 15 L38 25 M60 5 L58 15 M80 20 L78 30 M100 12 L98 22 M120 8 L118 18 M140 18 L138 28"
          stroke="#64B5F6" stroke-width="1.5" stroke-linecap="round" opacity="0.6"/>

    <!-- Child's face - now refreshed -->
    <circle cx="100" cy="90" r="45" fill="#FFD8A8"/>

    <!-- Neat hair -->
    <ellipse cx="100" cy="55" rx="48" ry="35" fill="#5D4037"/>

    <!-- Happy eyes -->
    <circle cx="85" cy="85" r="3" fill="#333"/>
    <circle cx="115" cy="85" r="3" fill="#333"/>
    <path d="M80 78 Q85 75 90 78" stroke="#333" stroke-width="1.5" fill="none"/>
    <path d="M110 78 Q115 75 120 78" stroke="#333" stroke-width="1.5" fill="none"/>

    <!-- Big smile with sparkly teeth -->
    <path d="M85 105 Q100 115 115 105" stroke="#333" stroke-width="2" fill="none"/>
    <!-- Sparkly white teeth -->
    <rect x="93" y="105" width="4" height="8" fill="#FFF" rx="1"/>
    <rect x="99" y="105" width="4" height="8" fill="#FFF" rx="1"/>
    <rect x="105" y="105" width="4" height="8" fill="#FFF" rx="1"/>

    <!-- Sparkle effects -->
    <g opacity="0.8">
        <path d="M75 95 L77 97 L75 99 L73 97 Z" fill="#FFD700"/>
        <path d="M125 95 L127 97 L125 99 L123 97 Z" fill="#FFD700"/>
        <path d="M100 70 L102 72 L100 74 L98 72 Z" fill="#FFD700"/>
    </g>

    <!-- Toothbrush being used -->
    <rect x="125" y="95" width="6" height="30" rx="3" fill="#4FC3F7" transform="rotate(-30 128 110)"/>
    <rect x="127" y="90" width="10" height="8" rx="2" fill="#E1F5FE" transform="rotate(-30 132 94)"/>
</svg>